<?xml version="1.0" encoding="utf-8"?>
<!-- RobixHost wordmark - versiune alba, pentru fundaluri colorate/inchise -->
<svg version="1.1" id="Layer_1" xmlns="http://www.w3.org/2000/svg" x="0px" y="0px"
	 viewBox="0 0 339.7 85" style="enable-background:new 0 0 339.7 85;" xml:space="preserve">
<style type="text/css">
	.rh-mark{fill:#EE5586;}
	.rh-word{fill:#FFFFFF;}
	.rh-accent{fill:#EE5586;}
</style>
<g>
	<rect class="rh-mark" x="0" y="16" width="53" height="53" rx="14" ry="14"/>
	<path class="rh-word" d="M18 55V30h11.2c2.7 0 4.8.6 6.3 1.9 1.5 1.3 2.3 3 2.3 5.1 0 1.5-.4 2.8-1.2 3.9-.8 1.1-1.9 1.9-3.3 2.3l5.1 11.8h-6l-4.5-10.9h-4.1V55H18Zm5.8-15.3h4.9c1.2 0 2.1-.3 2.8-.9.7-.6 1-1.4 1-2.4 0-1-.3-1.8-1-2.4-.7-.6-1.6-.9-2.8-.9h-4.9v6.6Z"/>
</g>
<text x="66" y="56" class="rh-word" style="font-family:'Open Sans',Arial,sans-serif;font-weight:700;font-size:34px;">Robix<tspan class="rh-accent">Host</tspan></text>
</svg>
